<?xml version="1.0" encoding="utf-8" standalone="no"?>
<!DOCTYPE svg PUBLIC "-//W3C//DTD SVG 1.1//EN"
  "http://www.w3.org/Graphics/SVG/1.1/DTD/svg11.dtd">
<!-- Created with matplotlib (http://matplotlib.org/) -->
<svg height="432pt" version="1.1" viewBox="0 0 576 432" width="576pt" xmlns="http://www.w3.org/2000/svg" xmlns:xlink="http://www.w3.org/1999/xlink">
 <defs>
  <style type="text/css">
*{stroke-linecap:butt;stroke-linejoin:round;}
  </style>
 </defs>
 <g id="figure_1">
  <g id="patch_1">
   <path d="
M0 432
L576 432
L576 0
L0 0
L0 432" style="fill:none;"/>
  </g>
  <g id="axes_1">
   <g id="line2d_1">
    <path clip-path="url(#p7ff5b81e1d)" d="
M72 388.8
L518.4 43.2
L518.4 43.2" style="fill:none;stroke:#ffffff;stroke-dasharray:6.000000,6.000000;stroke-dashoffset:0.0;stroke-width:4;"/>
   </g>
   <g id="line2d_2">
    <path clip-path="url(#p7ff5b81e1d)" d="
M72 388.8
L113.557 356.766
L135.899 339.834
L154.667 325.888
L171.2 313.873
L186.393 303.098
L200.692 293.223
L214.544 283.928
L227.503 275.498
L240.014 267.619
L252.079 260.278
L263.697 253.461
L275.315 246.903
L286.486 240.849
L297.658 235.052
L308.382 229.735
L319.106 224.667
L329.384 220.051
L339.661 215.672
L349.939 211.536
L360.216 207.646
L370.047 204.156
L379.877 200.896
L389.708 197.865
L399.539 195.065
L409.369 192.497
L419.2 190.159
L429.031 188.052
L438.861 186.175
L448.692 184.527
L458.523 183.105
L468.353 181.907
L478.184 180.932
L488.014 180.175
L497.845 179.634
L508.123 179.295
L518.4 179.183
L518.4 179.183" style="fill:none;stroke:#ffffff;stroke-linecap:square;stroke-width:4;"/>
   </g>
   <g id="line2d_3">
    <defs>
     <path d="
M0 7.5
C1.98902 7.5 3.89685 6.70975 5.3033 5.3033
C6.70975 3.89685 7.5 1.98902 7.5 0
C7.5 -1.98902 6.70975 -3.89685 5.3033 -5.3033
C3.89685 -6.70975 1.98902 -7.5 0 -7.5
C-1.98902 -7.5 -3.89685 -6.70975 -5.3033 -5.3033
C-6.70975 -3.89685 -7.5 -1.98902 -7.5 0
C-7.5 1.98902 -6.70975 3.89685 -5.3033 5.3033
C-3.89685 6.70975 -1.98902 7.5 0 7.5
z
" id="m1b65db3adf" style="stroke:#0000ff;stroke-width:10;"/>
    </defs>
    <g clip-path="url(#p7ff5b81e1d)">
     <use style="fill:#0000ff;stroke:#0000ff;stroke-width:10;" x="161.28" xlink:href="#m1b65db3adf" y="319.68"/>
    </g>
   </g>
   <g id="line2d_4">
    <g clip-path="url(#p7ff5b81e1d)">
     <use style="fill:#0000ff;stroke:#0000ff;stroke-width:10;" x="339.84" xlink:href="#m1b65db3adf" y="250.56"/>
    </g>
   </g>
  </g>
 </g>
 <defs>
  <clipPath id="p7ff5b81e1d">
   <rect height="345.6" width="446.4" x="72.0" y="43.2"/>
  </clipPath>
 </defs>
</svg>
